<svg xmlns="http://www.w3.org/2000/svg" xmlns:v="https://vecta.io/nano" width="36" height="36">
    <path d="M17.842 0C7.988 0 0 8.059 0 18s7.988 18 17.842 18 17.843-8.059 17.843-18S27.697 0 17.842 0" fill="#94292e"/><path d="M19.826 5.611c.046.028.068.073.08.124a.73.73 0 0 1 .007.29l-.05.3c-.014.093-.013.186.017.277.014.044.027.089.067.117.08-.085.082-.086.037-.177-.026-.052-.018-.098.012-.142a.41.41 0 0 1 .119-.11c.068-.045.135-.09.186-.157.031-.042.066-.049.107-.01.067.065.138.126.193.201a.21.21 0 0 1-.057.339c-.107.077-.22.083-.341.041-.072-.025-.099-.007-.117.063-.011.043-.004.074.036.099l.204.134a1.13 1.13 0 0 1 .395.494l.034.074c.003.006.011.011.019.018.009-.003.022-.005.03-.012a5.42 5.42 0 0 1 .395-.36c.069-.058.069-.08.036-.161-.023-.057-.06-.077-.118-.064-.149.033-.218-.076-.285-.173-.058-.084-.038-.181.045-.278l.286-.322c.036-.045.071-.044.099.012.041.08.111.115.185.149.053.024.107.047.154.081.11.077.127.179.057.293-.045.072-.106.123-.191.141l-.068.015c-.033.008-.076.007-.074.056s.038.074.085.078c.054.005.107 0 .16-.017a1.96 1.96 0 0 0 .597-.328c.06-.047.084-.12.127-.18.038-.053.065-.052.087.008a.44.44 0 0 1-.017.362 1.08 1.08 0 0 1-.145.211c-.034.041-.047.08-.003.123.005.005.009.013.014.018.043.05.052.134.112.158s.102-.054.159-.077c.128-.051.23-.011.281.118a.52.52 0 0 1 .011.333c-.012.048-.042.073-.091.074-.167.005-.328.047-.493.068a.57.57 0 0 1-.241-.013c-.079-.024-.106-.062-.103-.146.004-.149.093-.257.239-.288.008-.002.015-.002.023-.003.034-.006.079-.004.09-.04.015-.047-.027-.077-.057-.106-.046-.044-.095-.059-.158-.025l-.382.219c-.272.187-.395.462-.439.777a1.12 1.12 0 0 0 .023.43c.018.072.032.078.095.046l.287-.152c.076-.042.09-.081.06-.162-.013-.036-.035-.07-.049-.106-.045-.111-.008-.207.06-.293.034-.043.071-.034.078.02.012.106.075.175.149.241.064.055.134.107.155.198.008.036.036.049.07.05.204.008.407.052.611.004.053-.013.104-.03.154-.048.101-.037.162-.102.165-.214.004-.195.12-.331.24-.465a.41.41 0 0 1 .145-.115c.024-.01.051-.026.074.001s.022.052.009.077l-.027.047h0l-.057.092h0c-.057.095-.094.196-.087.31.004.067.013.074.078.06.093-.02.175-.049.214-.153a.36.36 0 0 1 .147-.176c.112-.071.217-.058.298.045.073.093.105.207.136.32.01.038-.01.068-.037.093-.108.099-.23.173-.373.202s-.233-.016-.312-.142c-.012-.019-.018-.047-.045-.047-.034 0-.047.03-.051.055-.014.082-.04.157-.096.221-.02.023-.015.048.005.074.065.084.099.093.194.044.168-.087.292-.03.336.156a.45.45 0 0 1-.036.318c-.037.073-.064.078-.132.031-.054-.037-.113-.046-.176-.048s-.124.002-.185-.008c-.119-.018-.157-.089-.111-.201.012-.028.03-.055.046-.081s.058-.036.041-.075c-.014-.034-.046-.052-.078-.067s-.059-.011-.09-.002c-.286.087-.584.105-.877.152a2.83 2.83 0 0 0-.518.122c-.081.029-.157.065-.226.117-.09.068-.15.148-.156.271-.007.152-.041.299-.124.433-.099.16-.228.283-.4.36l-.105.048c-.117.051-.117.051-.055.157l.068.118c.051-.007.077-.046.116-.063.082-.037.147-.027.213.034a.48.48 0 0 1 .094.448c-.013.031-.033.051-.066.059-.154.037-.304.091-.461.111-.132.017-.246-.018-.325-.133-.105-.15-.037-.33.141-.37.045-.01.092-.012.137-.02.039-.007.05-.032.042-.069-.02-.087-.149-.177-.238-.168a1.53 1.53 0 0 0-.878.383.92.92 0 0 0-.219.282.84.84 0 0 1 .271.099c.034.021.075.011.112-.005l.107-.044c.163-.052.312.031.342.199.022.119.015.24-.006.36-.01.059-.047.09-.102.094-.146.01-.295.021-.439-.007-.218-.042-.296-.269-.165-.452.017-.024.058-.043.043-.076-.018-.038-.064-.039-.102-.039-.096-.001-.132.034-.143.13a.77.77 0 0 0 .207.644l.189.206c.127.129.226.275.295.443.038.093.063.1.127.022.107-.128.244-.172.4-.177.117-.004.207-.053.272-.15l.137-.202c.048-.071.094-.143.156-.202.102-.097.177-.109.303-.047.154.075.309.144.485.14.022-.001.05-.003.061.023.014.034-.014.049-.035.065a.33.33 0 0 1-.161.059l-.3.024c-.174.005-.245.076-.257.248-.003.037.011.059.047.069.068.018.132.042.187.089.031.028.06.02.094-.002.205-.134.396-.069.475.162.025.074.044.149.051.227.005.052-.009.096-.063.11-.153.041-.298.108-.456.132-.199.031-.342-.112-.311-.311.011-.071.058-.116.109-.159.022-.019.059-.034.046-.072-.011-.033-.044-.043-.075-.046-.089-.009-.174-.015-.247.061-.08.085-.187.128-.3.14-.367.041-.501.302-.535.616-.006.054-.005.109-.006.163l-.006.549c-.006.073.014.088.08.058l.336-.158c.09-.041.141-.119.183-.203.024-.047.013-.061-.041-.064-.023-.001-.046.001-.069.002-.062.002-.115-.014-.144-.076s-.019-.129.025-.186c.024-.031.056-.053.089-.074l.148-.092a.34.34 0 0 0 .158-.194c.018-.065.046-.07.083-.018.053.074.119.133.182.195s.089.127.062.211c-.029.09-.075.163-.179.176l-.046.007c-.089.014-.159.085-.172.174-.005.038.017.047.047.05.067.007.131-.009.195-.022.409-.08.816-.172 1.203-.333.089-.037.173-.086.252-.142.249-.175.351-.417.316-.718-.02-.175-.068-.343-.116-.512-.01-.034-.024-.067-.064-.076-.023-.005-.047-.005-.064.014s-.009.037.002.054c.023.037.038.075.032.121-.012.098-.062.165-.156.199-.101.036-.206.029-.31.026-.048-.001-.075-.037-.098-.074-.097-.158.027-.424.211-.45.035-.005.069-.001.101.016s.052.054.092.04l.183-.072c.023-.011.019-.04.016-.064-.043-.274-.09-.546-.206-.8a.48.48 0 0 0-.128-.178c-.086-.07-.152-.066-.244.012.144.16.129.348-.037.478-.087.068-.19.103-.296.127-.045.011-.075-.004-.09-.049l-.102-.298c-.032-.11.007-.191.108-.241.07-.035.145-.06.224-.04.049.012.082-.004.113-.038.008-.009.016-.018.025-.024.087-.056.123-.122.08-.232-.024-.061-.009-.138-.013-.208-.003-.06-.016-.116-.06-.16-.038-.037-.062-.033-.09.014-.01.017-.016.036-.025.053a.28.28 0 0 1-.384.092c-.045-.031-.063-.077-.067-.13a.49.49 0 0 1 .026-.172c.027-.093.063-.184.025-.285-.014-.035.008-.06.046-.063.149-.01.294.005.425.084.088.053.099.115.046.206l-.021.027c-.012.016-.021.032-.002.053.027.029.067.042.106.036s.039-.042.047-.073c.05-.2.002-.386-.085-.565l-.048-.093c-.01-.023-.006-.046.014-.064s.045-.014.064.002c.169.137.311.292.342.522a1.96 1.96 0 0 1 .022.326c-.005.132.052.223.169.28.087.042.176.08.243.155.028.032.054.017.074-.015a4.59 4.59 0 0 1 .284-.398c.02-.025.031-.053.035-.085.007-.062-.013-.077-.071-.052a.24.24 0 0 1-.355-.159c-.042-.122-.036-.245-.012-.369.022-.115.052-.228.116-.328.047-.074.073-.078.133-.016.071.074.162.103.255.129.059.016.119.031.165.078.125.129.117.33-.023.457-.023.021-.05.037-.074.056-.032.025-.023.056-.005.083s.041.016.06.003a9.22 9.22 0 0 1 .891-.522c.051-.027.089-.074.12-.125.021-.035.015-.06-.031-.063l-.081-.005c-.173-.024-.247-.174-.161-.328a.89.89 0 0 1 .104-.14c.059-.069.104-.142.109-.239.003-.064.033-.087.091-.07a.81.81 0 0 1 .378.216c.104.112.082.274-.035.374a.49.49 0 0 1-.13.076c-.021.009-.044.017-.063.029-.037.026-.083.17-.059.191.046.041.096.003.141-.008.037-.009.074-.026.104-.05.266-.207.481-.45.541-.8.008-.045.003-.115.07-.119s.08.066.092.116c.049.203.046.409.024.615-.001.008-.004.015-.005.023-.005.033-.027.079.02.089s.096.005.12-.046c.022-.046.035-.095.057-.14.074-.148.174-.177.312-.09s.195.226.239.373c.012.04-.002.077-.042.099-.123.065-.233.153-.362.208-.08.034-.16.057-.247.022-.097-.039-.13-.099-.107-.201.004-.019.013-.037.016-.056.008-.041-.015-.048-.047-.04s-.048.024-.067.044c-.19.204-.431.325-.68.435-.049.022-.101.037-.144.071-.007.038.031.041.044.063.051.085.108.104.207.055.133-.066.263-.005.325.131.057.123.053.249.004.375-.013.034-.033.063-.07.073-.145.039-.288.09-.442.078-.18-.015-.283-.148-.248-.32.015-.075.061-.124.127-.157.024-.012.05-.02.075-.032.039-.018.04-.044.013-.073-.064-.07-.14-.108-.238-.085a.69.69 0 0 0-.29.163 1.9 1.9 0 0 0-.281.31c-.023.031-.041.066-.056.102-.075.182-.074.183.106.263l.497.223c.183.077.373.125.575.112a.58.58 0 0 0 .323-.113c.161-.121.308-.259.482-.363.053-.032.103-.078.118-.145-.028-.019-.045-.006-.062.001-.096.036-.178.006-.241-.065a.25.25 0 0 1-.053-.271c.027-.072.079-.124.138-.17.073-.058.148-.114.203-.19.032-.045.069-.043.111-.019a1.42 1.42 0 0 1 .302.216c.096.094.071.264-.045.346a.35.35 0 0 1-.161.06c-.057.007-.078.042-.079.096s.029.075.079.077c.06.002.111.032.163.056.064.029.119.016.172-.028.036-.029.054-.061.044-.11-.026-.123.03-.209.129-.276s.208-.12.335-.106c.041.004.077.015.092.057.026.07.068.131.109.193.046.069.043.137.007.209-.109.215-.354.267-.535.112-.05-.043-.072-.041-.111.009s-.034.073.027.11a1.28 1.28 0 0 0 .265.115c.078.025.084.061.021.11-.027.021-.06.035-.09.053s-.067.017-.064.057.015.085.044.118c.019.022.044.005.064-.004.07-.029.144-.03.217-.024.108.008.163.056.177.165.015.116-.011.232-.02.348-.002.034-.026.055-.061.061-.178.03-.354.029-.525-.034-.075-.028-.133-.078-.162-.157-.041-.113-.004-.198.105-.246.098-.043.11-.085.05-.175-.026-.039-.058-.075-.099-.097-.262-.134-.539-.168-.784.076l.159.192c.017.025.043.029.072.024l.115-.017c.099-.006.185.047.214.143.036.118.035.238-.005.356-.014.043-.042.073-.09.079l-.044.006h0l-.087.012c-.117.015-.233.027-.352.004-.141-.027-.213-.109-.215-.247s.065-.226.202-.257c.036-.008.089.002.094-.047s-.038-.073-.073-.098c-.05-.036-.1-.037-.148.006l-.035.031c-.154.159-.348.187-.555.173l-.242-.024c-.097-.017-.115-.001-.136.094-.024.105-.022.109.078.137.214.062.272.24.138.421-.051.069-.114.128-.19.169-.059.031-.113.037-.17-.013-.07-.06-.152-.107-.223-.167-.082-.068-.147-.15-.161-.261-.021-.165.062-.254.225-.241.034.003.068.013.102.021.068.016.08.008.091-.062s0-.135-.075-.178l-.609-.312-.021-.008c-.077-.025-.09-.018-.093.061a1.29 1.29 0 0 0 .038.406c.061.217.136.43.231.636a.92.92 0 0 0 .734.54l.138.02a.46.46 0 0 0 .321-.06c.216-.131.446-.168.686-.056.026.012.053.036.086.017-.059-.2.006-.331.204-.408.058-.022.111-.054.166-.082s.082-.018.081.046c-.001.072.026.124.07.178.106.129.051.292-.109.339-.072.022-.144.027-.216-.002-.02-.008-.04-.026-.065-.01-.008.033.02.037.038.047.144.076.291.145.46.141.102-.002.114-.013.116-.114v-.117a.48.48 0 0 1 .32-.437c.076-.023.088-.018.117.065.008.022.018.036.04.031.094-.02.205-.004.249-.129.014-.04.05-.068.083-.096.118-.1.303-.035.324.099.013.08.042.158.036.241-.003.041-.014.076-.056.094l-.297.131c-.035.015-.074.023-.113.018-.068-.009-.123-.042-.174-.087-.057-.051-.031-.112-.008-.177-.167.057-.192.088-.193.234l.006.21c.007.085.016.091.094.105s.145.012.207-.043c.023-.02.053-.033.081-.044.144-.059.258-.014.325.127a.51.51 0 0 1 .047.296c-.014.097-.06.146-.155.162-.11.019-.222.035-.334.01-.175-.038-.252-.15-.227-.331.001-.011 0-.022 0-.036-.039-.007-.056.023-.07.047-.107.177-.277.196-.457.181-.185-.016-.363-.072-.543-.116-.06-.015-.119-.034-.182-.034-.041 0-.08.01-.095.052-.013.036.019.056.04.078.052.053.093.114.127.18.043.081.043.081.129.06a.29.29 0 0 1 .193.018c.083.037.117.103.091.19-.042.142-.133.253-.227.363-.023.027-.055.028-.085.015-.082-.034-.166-.063-.239-.118-.045-.034-.077-.076-.096-.129-.043-.12-.021-.16.102-.185.076-.015.093-.04.067-.113a.72.72 0 0 0-.071-.146c-.059-.092-.108-.107-.213-.067s-.218.045-.331.023c-.129-.025-.253-.07-.378-.108-.103-.032-.206-.068-.316-.067-.066.001-.073.013-.05.078.029.083.061.149.171.158.103.009.165.1.171.206.004.074.007.148-.021.219-.031.078-.076.109-.159.111-.043.001-.084-.01-.125-.023a1.44 1.44 0 0 1-.272-.13c-.089-.053-.127-.135-.107-.213s.097-.136.191-.146c.028-.003.065.018.081-.023.014-.036-.004-.069-.02-.1-.019-.037-.049-.061-.09-.066-.117-.015-.223.01-.304.104-.035.041-.067.086-.098.13-.324.468-.773.777-1.275 1.016-.076.037-.155.073-.236.095-.11.03-.139.113-.155.209-.006.037.007.062.05.056.008-.001.015-.003.023-.004.177-.009.242.06.221.236a.53.53 0 0 1-.331.391c-.035.01-.069.011-.099-.012l-.065-.048a.84.84 0 0 1-.122-.107c-.148-.164-.109-.342.092-.429.055-.024.119-.031.136-.11.022-.101.003-.134-.099-.122l-.411.066c-.251.045-.497.112-.74.189-.035.011-.076.012-.105.063l.214.114c.036.019.066 0 .098-.014.168-.072.289-.018.338.158.037.131.062.265.05.404-.006.074-.037.12-.112.143-.13.038-.261.074-.397.066-.234-.013-.365-.178-.328-.412a.18.18 0 0 1 .118-.147l.152-.057c.051-.023.056-.056.01-.085-.109-.067-.232-.081-.356-.085-.023-.001-.049.022-.071.036-.339.209-.512.528-.596.908-.018.08.001.135.072.176.054.031.101.072.138.124.029.042.06.041.096.007s.063-.058.099-.08c.091-.056.181-.045.25.037.112.134.12.29.081.452-.01.041-.041.065-.081.076l-.37.096a.58.58 0 0 1-.161.005c-.105-.007-.167-.073-.2-.169-.028-.083-.001-.158.081-.225.027-.022.058-.038.088-.056.016-.01.034-.018.048-.032s.008-.037-.003-.053c-.034-.053-.075-.101-.142-.11-.026-.003-.039.023-.046.045l-.027.089c-.07.237-.195.44-.363.617-.145.152-.3.294-.482.398-.265.152-.413.39-.506.672-.02.059-.035.118-.028.177.031.025.048.003.066-.009l.096-.066c.204-.15.435-.209.684-.218a2.78 2.78 0 0 1 1.241.233l.065.025c.124.042.17.026.25-.092-.022-.03-.057-.016-.085-.024a.11.11 0 0 1-.074-.179c.015-.027.037-.05.058-.073.106-.118.237-.213.321-.352.019-.032.049-.037.08-.017.143.091.274.191.305.375.021.125-.031.227-.148.269-.073.027-.151.046-.227.026s-.114.005-.157.061c-.091.12-.093.118.041.187a2.31 2.31 0 0 0 .34.147c.217.071.418.037.609-.082.15-.093.273-.216.38-.355.136-.176.245-.369.357-.559l.154-.261a.67.67 0 0 0 .093-.322l.017-.291c.002-.086-.021-.112-.102-.127-.096-.017-.184 0-.26.066-.036.031-.035.056.004.083.029.02.059.039.083.063.062.063.06.121-.004.181-.037.035-.082.058-.129.077-.141.057-.289.084-.438.104-.036.005-.068-.003-.095-.03-.113-.111-.147-.315-.074-.456.047-.091.129-.118.222-.122.078-.004.153.016.229.033.048.011.091.01.133-.018.128-.085.262-.131.415-.061.044.021.061-.013.074-.049l.122-.328c.047-.124.105-.245.186-.349s.109-.227.117-.363c-.051.001-.078.037-.111.059-.093.062-.182.049-.272-.003s-.105-.138-.094-.232c.003-.031.012-.061.021-.091.05-.163.142-.301.243-.436.023-.031.052-.067.093-.023.063.067.146.085.23.101.068.014.122.047.169.095a.22.22 0 0 1-.047.365c-.023.014-.048.024-.073.036-.036.017-.052.046-.048.084.003.029-.011.068.024.083.028.012.05-.016.07-.031a2.53 2.53 0 0 1 .554-.315.21.21 0 0 0 .128-.214c-.001-.015-.005-.034-.014-.042-.018-.015-.036.001-.051.013-.024.019-.046.042-.073.057-.06.035-.113.023-.148-.037-.061-.107-.084-.218-.015-.332.051-.083.117-.155.18-.229.022-.026.048-.037.082-.027.108.031.215.065.307.133.068.049.105.116.088.202s-.058.15-.149.175c-.062.017-.115.124-.096.185.011.035.038.033.066.027.141-.03.261-.092.345-.216.051-.075.085-.157.113-.242.043-.13.106-.251.174-.368.02-.035.035-.079.082-.091.031.012.025.039.023.06a.93.93 0 0 0 .102.509c.097.195.044.353-.098.496-.079.08-.164.154-.262.211l-.137.088c-.019.013-.042.031-.028.057.029.053.079.084.13.112.042.023.072-.005.105-.025.21-.124.449.008.465.257.003.051-.006.101-.022.149-.025.076-.066.124-.155.132-.13.011-.26.039-.389.056-.073.01-.146.011-.218-.013-.05-.017-.094-.043-.112-.094a.39.39 0 0 1 .02-.306c.021-.042.061-.058.106-.061l.128-.007a.94.94 0 0 0-.196-.131c-.031-.016-.06-.006-.089.008-.258.124-.519.242-.746.422-.218.173-.368.387-.402.672-.005.045-.018.092.007.137.048.012.081-.02.118-.038a2.11 2.11 0 0 1 .501-.178 1.2 1.2 0 0 1 .693.062l.307.138c.109.05.221.093.339.115.173.032.309-.011.407-.169a1.56 1.56 0 0 0 .225-.681 1.64 1.64 0 0 0-.012-.478c-.023-.121-.037-.128-.155-.1l-.068.014c-.092.01-.151-.036-.157-.128a.64.64 0 0 1 .008-.174l.117-.464c.014-.054.045-.081.102-.066.142.038.266.101.34.24.059.109.05.209-.025.304l-.025.029h0l-.054.056h0c-.057.06-.057.06.012.138.041-.02.054-.064.077-.098.124-.182.288-.3.507-.336.126-.02.251-.043.365-.106.053-.029.095-.067.11-.129.021-.087-.015-.126-.103-.111-.03.006-.06.015-.091.017-.063.005-.114-.018-.143-.077-.064-.129-.096-.263-.058-.406a.31.31 0 0 1 .128-.188c.086-.057.111-.056.185.02.048.049.109.073.17.097.047.019.096.033.14.056.122.066.142.202.048.304-.029.032-.063.057-.102.075-.025.012-.049.026-.05.058-.001.022.008.042.034.03.012-.006.023-.014.033-.023l.031-.027h0c.095-.079.192-.157.306-.208.071-.032.145-.055.224-.049s.102.043.061.116c-.019.033-.047.061-.071.091-.01.012-.022.022-.032.034-.038.046-.104.081-.083.154.015.05.189.089.249.062.05-.022.1-.042.153-.052.101-.019.187.017.238.105.058.101.075.212.052.327-.017.082-.045.105-.126.109-.148.008-.293-.011-.437-.038-.119-.022-.178-.108-.181-.223-.002-.063.043-.095.083-.149-.083-.023-.156-.028-.216.02-.116.093-.246.16-.375.231-.009.005-.016.017-.028.031.074.069.147.113.256.097.12-.018.236.01.3.129s.081.251.005.379c-.02.033-.041.058-.083.042-.075-.03-.149-.019-.223-.005l-.049.01-.025.005c-.083.015-.166.038-.252.035-.115-.004-.176-.042-.209-.132-.039-.106-.019-.179.073-.259.039-.034.082-.059.133-.066.038-.005.076-.009.105-.036-.002-.046-.04-.049-.065-.06-.226-.1-.459-.006-.558.222-.02.045-.022.091-.02.137l.03.49c.021.179.004.349-.073.513-.008.017-.012.036-.018.054.019.019.036.016.052.01l.016-.007a2.32 2.32 0 0 1 .573-.121c.117-.009.231.004.341.049l.075.03c.041.014.076.005.104-.029.019-.024.011-.042-.001-.06l-.01-.015c-.082-.145-.068-.247.057-.33.161-.107.348-.146.535-.175.037-.006.063.013.057.053-.017.117.028.223.052.332.032.146-.011.235-.148.286-.112.042-.226.051-.336-.011-.017-.009-.034-.02-.052-.024-.029-.008-.053.005-.071.028s-.008.046.007.064c.097.118.21.218.341.296.055.033.121.019.182.005.084-.02.169-.02.253-.013.143.012.257.081.337.201.041.061.023.095-.049.095a3.61 3.61 0 0 1-.243-.006c-.07-.004-.128.014-.182.059-.038.032-.082.058-.123.087-.032.023-.048.052-.029.09s.048.032.08.024c.053-.012.105-.029.158-.034.146-.014.236.057.261.203l.009.052c.009.052.014.104.001.157-.02.081-.047.111-.128.104l-.486-.019c-.038-.002-.076-.013-.113-.023-.071-.021-.128-.059-.136-.141s.022-.146.088-.191a.43.43 0 0 1 .104-.049c.054-.018.051-.05.026-.09s-.058-.063-.096-.083c-.129-.066-.245-.148-.346-.252-.078-.08-.174-.112-.28-.122l-.323-.024c-.034-.002-.07-.002-.103.011s-.046.031-.036.063c.03.097.053.141.151.11.041-.013.084-.008.126-.002.231.037.276.196.234.374-.02.086-.081.149-.134.216-.018.023-.045.027-.074.024-.162-.015-.322-.036-.473-.104-.031-.014-.062-.032-.089-.054-.119-.094-.116-.246.004-.336a.38.38 0 0 1 .102-.054c.034-.012.083-.006.081-.064s-.049-.117-.104-.123a.43.43 0 0 0-.227.033.78.78 0 0 0-.203.133l-.297.278c-.062.06-.06.064.005.111.136.097.23.23.302.378l.148.33c.099.217.206.427.383.593.115.108.25.166.403.188.03.004.062.003.092-.001.041-.006.053-.041.064-.075s-.009-.051-.034-.066a.42.42 0 0 1-.105-.091.26.26 0 0 1 .113-.435c.098-.038.204-.041.307-.051.042-.004.084-.005.126-.017a.26.26 0 0 0 .162-.122c.033-.054.058-.052.096-.003.012.015.021.033.03.05a1.05 1.05 0 0 1 .126.469.29.29 0 0 1-.416.309l-.154-.052a.21.21 0 0 0-.068-.011c-.037.001-.089.057-.09.094-.001.03.017.04.037.047l.018.006c.182.069.305.195.41.344.009.013.018.025.025.039.015.032.03.067.004.099s-.057.022-.087.014l-.268-.075c-.066-.017-.074-.009-.071.059.005.117.017.129.14.128.058 0 .115.001.172.017.142.041.209.149.172.294-.031.122-.12.217-.163.335-.012.031-.046.025-.072.02-.197-.037-.396-.069-.582-.149a.27.27 0 0 1-.164-.323c.032-.126.117-.187.247-.178l.046.004c.096.004.119-.029.084-.117-.022-.055-.062-.089-.118-.101s-.113-.023-.172-.024c-.104 0-.209.009-.31-.026-.048-.017-.072.007-.083.053l-.039.159c-.023.086-.035.161.05.23.063.052.058.104.016.179a.5.5 0 0 1-.032.048c-.072.099-.083.099-.14-.006-.038-.071-.101-.117-.162-.165-.089-.071-.094-.093-.055-.199l.043-.121a.41.41 0 0 0-.055-.389c-.088-.121-.148-.255-.206-.391l-.014-.032c-.01-.02-.015-.048-.043-.049-.021-.001-.031.02-.039.038-.013.026-.017.052.009.074l.036.029c.105.094.121.201.052.324a.52.52 0 0 1-.18.178c-.038.025-.072.026-.1-.015-.071-.107-.144-.213-.18-.338-.041-.141.005-.224.147-.243.076-.01.118-.041.145-.111.029-.075.047-.143-.003-.22a2.16 2.16 0 0 0-.436-.482l-.55-.429c-.082-.063-.087-.059-.11.048-.056.14-.037.226.103.298s.144.212.032.331c-.05.053-.12.07-.177.107-.148.098-.278.076-.406-.038-.049-.044-.109-.074-.154-.122-.145-.153-.085-.452.11-.533.09-.037.165 0 .232.061.031.028.047.072.094.081.09-.145.068-.295-.058-.392-.04-.031-.085-.055-.132-.071-.289-.099-.585-.147-.888-.085-.2.041-.332.172-.419.354-.017.036-.009.062.03.071.05.012.094.033.134.065.07.056.074.058.142.012l.015-.011c.041-.028.082-.059.128-.08.09-.042.172-.02.218.067.096.181.089.367 0 .549-.021.042-.055.068-.104.04s-.104-.026-.158-.026a1.17 1.17 0 0 1-.298-.033c-.081-.021-.159-.055-.179-.146s.022-.166.087-.229c.022-.021.054-.03.066-.062-.12-.065-.191-.052-.248.054l-.267.545c-.033.078-.031.082.047.106s.134.062.177.124a.08.08 0 0 0 .109.034c.018-.007.037-.013.056-.016.103-.02.202-.023.272.075.075.104.109.215.044.338-.042.079-.095.152-.125.237-.011.031-.036.037-.065.037-.178-.003-.355-.012-.528-.059a.45.45 0 0 1-.055-.019c-.188-.08-.22-.289-.065-.423a.34.34 0 0 1 .154-.077c.04-.009.083-.01.121-.032-.098-.126-.227-.134-.317-.02-.185.233-.386.446-.649.591-.009.005-.013.017-.019.025.008.034.037.042.059.055.204.113.364.274.5.462.034.047.066.097.105.139.073.077.172.054.198-.047.02-.077.069-.108.139-.12a.26.26 0 0 1 .179.034c.099.058.172.144.247.228.033.038.023.081.004.121a.58.58 0 0 1-.231.255c-.114.066-.284-.014-.325-.15-.012-.041-.014-.084-.022-.126-.005-.026-.02-.044-.048-.039s-.036.031-.028.054c.064.208.114.423.253.598.101.128.232.144.367.057.247-.158.364-.395.405-.677l.047-.347c.014-.109.043-.215.094-.311.04-.075.047-.156.071-.233.013-.041 0-.068-.041-.08-.015-.004-.03-.01-.043-.017-.084-.044-.108-.104-.072-.193.019-.046.045-.091.075-.131l.235-.304c.034-.045.067-.047.106-.011.1.091.177.196.205.331a.22.22 0 0 1-.229.287c-.035 0-.072-.012-.088.033-.01.029-.028.059-.008.089s.049.021.075.017c.194-.029.378-.081.522-.228a1.1 1.1 0 0 1 .164-.13c.12-.083.253-.082.389-.072.015.001.03.008.043.015.006.003.009.012.015.02-.013.043-.056.048-.089.062-.163.065-.295.168-.388.32-.008.013-.018.025-.026.039-.081.131-.194.208-.351.214-.015.001-.031.003-.046.005-.209.018-.274.072-.325.278-.045.181-.027.365-.014.547.018.247-.011.474-.189.661.024.031.044.013.065.006l.339-.121c.182-.07.372-.101.562-.132.027-.004.056-.01.08-.003.112.035.174-.025.225-.111.008-.013.019-.025.026-.038.03-.053.026-.064-.031-.081l-.078-.021c-.209-.066-.253-.244-.099-.403.065-.068.146-.114.228-.158.154-.081.318-.141.459-.248.055-.042.092-.029.114.04.042.127.114.238.175.355a.91.91 0 0 1 .096.274c.006.035.008.069-.002.104-.07.256-.44.367-.636.192-.012-.01-.023-.021-.032-.033-.035-.046-.063-.033-.09.008-.004.007-.009.012-.014.018-.119.151-.119.151.031.272l.279.229c.139.119.297.135.468.094s.322-.109.475-.183c.042-.02.083-.042.127-.056.052-.016.073.004.066.057-.003.022-.027.044-.004.064s.064.03.098.024.057-.023.085-.036l.063-.03.032-.013c.211-.077.367.04.352.267-.006.093-.021.186-.006.279.007.043-.018.065-.051.081-.046.022-.097.027-.146.033a1.07 1.07 0 0 1-.333-.026c-.207-.043-.278-.212-.18-.399l.025-.047c-.06-.023-.11-.008-.155.022-.039.025-.074.056-.109.086-.159.136-.334.236-.542.274-.082.015-.123.113-.081.185.015.026.04.02.061.014.056-.017.113-.025.171-.023a.3.3 0 0 1 .265.381c-.046.133-.137.244-.185.376-.014.037-.049.037-.078.019-.138-.083-.296-.112-.444-.165-.062-.022-.122-.051-.172-.095-.081-.07-.112-.164-.071-.262.051-.121.119-.231.274-.23.05 0 .069-.023.064-.072-.009-.089-.034-.158-.128-.2-.126-.057-.243-.136-.364-.204-.155-.086-.318-.084-.484-.043-.064.016-.074.037-.037.086.075.098.099.211.099.329 0 .092.021.146.121.177.154.048.205.221.124.364-.021.037-.045.038-.075.016l-.045-.037c-.077-.078-.17-.114-.279-.122-.098-.007-.107-.024-.109-.126-.001-.078.001-.155-.014-.232-.022-.117-.144-.231-.283-.229-.175.003-.345.037-.517.061-.067.009-.072.028-.051.097l.019.055c.034.098.034.097.138.072a.45.45 0 0 1 .229.004c.157.044.234.166.205.328a.45.45 0 0 1-.086.19c-.069.094-.147.181-.194.29-.019.044-.047.057-.092.036-.154-.072-.318-.119-.476-.182a.61.61 0 0 1-.188-.113.2.2 0 0 1-.059-.232c.053-.154.173-.248.336-.258l.046-.002c.046-.004.061-.028.045-.071a.35.35 0 0 0-.197-.202 1.15 1.15 0 0 0-.289-.082c-.22-.035-.368-.168-.489-.342-.076-.109-.13-.23-.188-.348l-.158-.312c-.035-.064-.076-.067-.132-.022-.082.067-.084.12-.009.201.027.029.052.057.069.093.058.124.01.259-.117.31l-.327.118c-.043.016-.078.009-.098-.033-.047-.097-.125-.167-.198-.242a.35.35 0 0 1-.083-.151c-.066-.232.097-.437.336-.421.081.006.163.016.219.088.024.03.05.032.081.011l.029-.019c.12-.076.12-.086.024-.186a2.3 2.3 0 0 0-.732-.506c-.165-.073-.311-.171-.451-.282l-.126-.095c-.037.083-.035.165-.055.237.036.029.068.014.098.014.14.001.222.086.22.228a.56.56 0 0 1-.059.224.94.94 0 0 1-.13.207c-.036.043-.07.045-.092.001-.038-.077-.103-.115-.172-.15l-.041-.021h0c-.069-.035-.142-.062-.202-.113-.096-.08-.104-.182-.02-.274.062-.068.14-.111.232-.121.056-.006.083-.034.087-.089.003-.031.012-.062.012-.092-.001-.093-.035-.163-.129-.2-.166-.065-.336-.116-.512-.144-.242-.04-.485-.038-.724.02-.429.103-.757.339-.954.746-.09.186-.11.379-.061.579.041.169.12.32.213.464.177.276.401.514.609.765.42.505.716 1.072.819 1.728.07.443.047.885-.065 1.321l-.208.778a2.18 2.18 0 0 0-.083.541c.001.375.237.613.608.618.149.002.291-.031.433-.07.193-.054.382-.122.582-.151a.39.39 0 0 1 .245.043c.095.049.172.118.233.206a2.21 2.21 0 0 1 .202.354c.037.082.094.124.177.123.11 0 .194.042.255.133.033.049.075.059.131.038.119-.044.24-.026.35.026.429.203.447.151.841.158.112.002.223.016.335.029a.35.35 0 0 1 .11.034c.032.016.031.044.001.063-.022.014-.049.023-.074.033-.128.048-.262.068-.396.082l-.819.056c-.139-.002-.277.013-.416.019-.043.002-.082.019-.122.034a2.33 2.33 0 0 1-.525.14c-.142.017-.278.005-.406-.06-.082-.042-.141-.043-.214.029-.141.14-.33.182-.519.207-.529.071-1.061.08-1.595.067-.057-.001-.114-.009-.172-.014l-.009.022c.091.077.186.148.296.197a.23.23 0 0 0 .147.015c.18-.04.345.004.5.093a.29.29 0 0 0 .209.04.64.64 0 0 1 .33.033l.842.329c.289.113.587.191.89.256.043.01.115.004.113.054-.002.059-.076.05-.122.057-.357.052-.714.064-1.071-.01l-.194-.033c-.138-.015-.279-.028-.413.02-.277.1-.553.074-.832.01a2.84 2.84 0 0 0-.652-.089c-.152.001-.3.021-.445.064a3.21 3.21 0 0 1-.867.129c-.322.005-.622-.062-.867-.291-.04-.037-.075-.031-.112 0l-.144.118a2.82 2.82 0 0 1-.437.306c-.131.079-.285.091-.431.125-.191.045-.376.005-.561-.035a5.2 5.2 0 0 0-.526-.078c-.129-.014-.25.007-.371.063-.247.115-.511.174-.781.206-.062.007-.124 0-.182-.024s-.077-.069-.048-.131a.46.46 0 0 1 .12-.155c.161-.139.355-.205.555-.25a.77.77 0 0 0 .371-.203 2.07 2.07 0 0 0 .228-.248.49.49 0 0 1 .336-.187c.119-.019.238-.024.358-.023.165.002.292-.079.426-.179-.043-.022-.07-.001-.096.007-.252.081-.509.122-.775.116a1.85 1.85 0 0 1-.676-.141l-.393-.172c-.061-.028-.114-.026-.176.002-.172.078-.346.158-.536.18l-.461.038-.95-.004c-.089-.001-.177-.014-.265-.022-.032-.003-.063-.01-.073-.046s.015-.058.044-.072l.623-.336c.184-.087.377-.091.568-.062.169.025.302-.035.433-.121.075-.049.138-.113.2-.177.106-.108.207-.221.329-.312.215-.163.457-.217.721-.184.05.006.101.009.149.021.112.029.197-.015.268-.095.046-.052.085-.111.129-.165.122-.153.262-.163.406-.029.037.034.066.077.104.11.118.103.245.178.411.125.053-.017.096-.048.136-.086a.89.89 0 0 0 .19-.263c.355-.725.605-1.482.707-2.287.062-.49.056-.978.001-1.468l-.193-1.316c-.084-.389-.187-.775-.375-1.126-.22-.412-.518-.756-.951-.957-.149-.069-.307-.101-.471-.106-.313-.009-.625.003-.937.028-.047.004-.093.011-.123.054-.02.03-.025.058.021.07.019.005.037.01.055.018.096.041.141.112.124.212-.028.167-.129.298-.225.43-.017.024-.045.028-.074.023-.119-.023-.23-.064-.318-.155-.174-.179-.132-.4.097-.498.031-.014.067-.019.1-.027.015-.004.031-.003.045-.009.038-.014.05-.048.052-.084s-.032-.041-.057-.045c-.14-.028-.279-.069-.42-.079-.416-.03-.802.074-1.173.302a.72.72 0 0 1 .258.219c.02.028.056.023.086.017l.123-.034c.176-.04.329.069.347.25.011.104-.021.2-.063.293-.018.039-.051.057-.091.065a1.29 1.29 0 0 1-.54.002c-.1-.022-.171-.09-.216-.18-.067-.133.012-.286.165-.325.029-.007.059-.007.09-.011-.05-.121-.144-.178-.261-.162-.027.004-.055.009-.073.031-.107.138-.216.275-.246.456-.017.106.001.2.073.283a1.51 1.51 0 0 1 .16.229c.135.235.11.443-.08.637l-.026.027h0l-.051.056c-.034.037-.07.073-.11.102-.045-.019-.033-.054-.027-.082l.057-.226c.054-.154.018-.292-.065-.422-.038-.059-.083-.112-.125-.168l-.067-.095c-.074-.115-.074-.115-.199-.049-.141.073-.223.189-.246.346-.014.097.002.116.098.125.082.008.159.031.228.077.146.099.169.258.053.391-.077.088-.165.166-.269.219s-.204.06-.304-.017l-.07-.053c-.081-.062-.159-.128-.219-.214-.024-.035-.048-.071-.065-.11-.08-.183.042-.361.243-.357.052.001.11.039.156-.004s.032-.102.047-.154c.009-.033.03-.064.023-.101-.019-.023-.043-.016-.064-.007-.219.093-.447.066-.674.049a1.6 1.6 0 0 1-.236-.04l-.117-.027h0c-.154-.035-.193-.019-.277.118-.028.046-.08.091-.066.144.01.04.045.046.081.05l.024.003c.012.002.023.004.034.007.137.05.182.133.137.271-.049.149-.167.239-.281.333-.025.021-.059.019-.089.015a.56.56 0 0 1-.316-.134c-.084-.075-.122-.169-.089-.283s.112-.183.232-.198c.027-.003.054-.003.081-.004s.054-.007.069-.035l.137-.27c.028-.062.012-.078-.053-.069-.125.017-.236.07-.344.133-.03.018-.064.065-.1.026-.029-.032.001-.075.017-.109.139-.284.347-.464.681-.45.046.002.092.008.138-.005.017-.034-.009-.052-.026-.071-.025-.03-.053-.057-.08-.085-.138-.143-.293-.194-.48-.1-.048.024-.101.04-.153.055-.035.01-.071.032-.109.009.138-.165.295-.296.507-.33a.4.4 0 0 1 .324.096l.335.287a.58.58 0 0 0 .745.063c.056-.035.057-.05.004-.092-.076-.061-.085-.061-.167-.001-.093.069-.234.064-.347-.012-.088-.059-.115-.141-.086-.267.023-.103.07-.198.113-.293l.082-.193c.019-.045.049-.066.087-.027.079.081.183.112.284.15a.77.77 0 0 1 .167.08c.162.111.152.322-.02.418-.017.009-.037.012-.046.032.056.063.076.069.141.033s.124-.093.171-.156l.174-.248c.217-.352.546-.54.928-.651.037-.011.075-.017.113-.025s.05-.035.029-.068l-.272-.42c-.063-.083-.162-.132-.269-.149-.07-.011-.092.012-.09.083.001.035.01.069.011.104.006.144-.056.238-.19.287-.128.047-.257.044-.387.006-.053-.016-.075-.046-.057-.105.043-.141.073-.287.139-.42a.49.49 0 0 1 .098-.144c.089-.085.222-.087.297.01.049.063.101.078.169.066s.121.017.18.031c.024-.031-.001-.054-.009-.076-.1-.258-.22-.506-.35-.75l-.09-.15c-.027-.043-.068-.062-.118-.062-.032-.001-.052.011-.049.047l.006.14c0 .06-.016.116-.053.164-.04.054-.092.084-.161.067l-.381-.097c-.061-.016-.091-.054-.086-.119.017-.209.089-.34.314-.389.067-.015.12-.004.169.046.041.042.073.039.114-.001s.018-.07-.011-.099l-.157-.155c-.253-.252-.667-.151-.83.123-.099.167-.14.352-.193.536-.031.107-.014.19.074.257.012.009.022.022.033.033.1.102.1.102.227.044.167-.077.341.029.347.214.003.119-.033.231-.071.341-.013.037-.039.055-.077.06-.142.02-.284.033-.427.022-.124-.01-.222-.064-.274-.185s-.015-.216.102-.27c.052-.024.109-.036.172-.056-.02-.079-.078-.119-.144-.152-.031-.016-.052.004-.068.028l-.028.041h0l-.057.082c-.038.055-.074.111-.103.171-.045.094-.046.185.007.279.091.161.109.33.037.505-.04.097-.204.306-.287.36-.022-.048-.002-.091.013-.134l.076-.208c.03-.086.017-.169-.027-.247s-.091-.145-.121-.226c-.017-.044-.046-.058-.091-.042l-.273.096c-.125.051-.192.152-.218.283-.011.056.003.071.06.065l.16-.025c.12-.008.19.058.19.181a.36.36 0 0 1-.063.197c-.059.092-.136.17-.211.248-.022.023-.047.041-.08.041l-.086.002a.95.95 0 0 1-.214-.014c-.104-.021-.182-.081-.241-.168-.075-.11-.084-.226-.016-.341s.169-.175.3-.158c.073.01.099-.016.113-.078.003-.015.008-.03.014-.045.053-.151.053-.152-.11-.172a.41.41 0 0 0-.429.191l-.04.062c-.066.103-.137.204-.243.273-.022.014-.041.037-.072.034-.031-.018-.021-.049-.013-.072.049-.133.06-.273.08-.412.018-.124.049-.244.099-.359a.26.26 0 0 0 .021-.066c.004-.03-.014-.052-.039-.066s-.046-.009-.064.008c-.025.023-.048.05-.071.077-.065.078-.141.141-.248.115-.116-.029-.161-.123-.181-.234-.009-.047-.008-.094.006-.139.036-.116.055-.234.052-.356-.002-.069.016-.083.074-.061.1.038.203.045.307.047.051.001.1.007.147.027.113.047.164.163.123.278-.011.029-.026.057-.038.085-.031.076-.004.13.075.145.026.005.054.005.081.001.195-.029.393-.013.588-.045.115-.019.228-.042.331-.101.145-.083.234-.212.289-.367.018-.05.003-.068-.047-.056-.086.021-.172.047-.261.048-.051.001-.07.042-.094.077-.075.108-.173.177-.308.178a.21.21 0 0 1-.228-.2.51.51 0 0 1 .023-.219c.039-.121.058-.242.009-.365-.014-.035-.008-.059.034-.069l.372-.087c.228-.039.434.157.404.377-.009.071-.05.127-.102.195.079-.008.132-.028.186-.049s.086-.059.099-.119l.114-.525c.015-.048-.011-.064-.053-.066l-.116-.004c-.179-.006-.337-.075-.489-.166l-.292-.167a.72.72 0 0 0-.871.165c.013.038.053.039.079.057.098.067.124.168.051.261-.089.112-.199.207-.287.32-.024.03-.054.024-.083.004a.87.87 0 0 1-.216-.192.24.24 0 0 1 .152-.385c.027-.005.054-.007.081-.007.092-.003.104-.004.121-.089.041-.206.168-.356.312-.494.081-.078.083-.076.026-.173l-.067-.114-.033-.057c-.027-.049-.067-.06-.118-.048s-.061.035-.031.081c.08.123.071.185-.042.277-.104.085-.228.129-.354.169-.05.016-.08 0-.092-.056a.74.74 0 0 1 .027-.403c.044-.123.111-.168.239-.152.085.011.159-.029.239-.033.036-.002.041-.03.032-.06l-.032-.1-.042-.101a1.7 1.7 0 0 0-.176-.337.3.3 0 0 1-.019-.03c-.038-.071-.027-.091.049-.093.084-.002.161.019.225.076.137.123.253.262.329.432.054.121.108.241.207.335.074.071.158.124.255.155s.105.019.089-.073l-.011-.057c-.007-.054-.034-.082-.09-.087a.37.37 0 0 1-.183-.067.21.21 0 0 1-.07-.312 1.25 1.25 0 0 1 .333-.385c.103-.078.124-.075.217.015s.192.169.266.276c.09.13.087.248-.004.366-.032.041-.07.073-.12.086l-.146.035c-.104.023-.125.072-.066.162.038.058.086.094.161.096a7.27 7.27 0 0 0 .947-.055c.023-.003.045-.011.068-.015.035-.007.056-.026.053-.064s-.013-.079-.061-.086c-.031-.004-.062-.002-.092-.003-.195-.006-.291-.158-.214-.339.015-.036.035-.07.057-.102l.129-.18c.121-.164.121-.163.309-.076a.58.58 0 0 1 .164.108c.082.081.1.171.054.277-.029.065-.067.122-.125.165-.031.023-.059.05-.079.084-.064.11-.029.198.095.221l.587.129a2.2 2.2 0 0 1 .783.418c.014.013.03.025.046.036.065.044.086.041.106-.036.045-.173.163-.288.291-.397a1.3 1.3 0 0 1 .241-.162c.044-.023.077-.053.066-.11-.014-.073-.066-.094-.124-.049-.04.031-.076.067-.118.094-.142.09-.283.022-.307-.145-.008-.059 0-.117.016-.173l.052-.179c.015-.053.018-.102-.013-.156-.038-.066-.018-.099.053-.096l.415.034c.099.013.191.055.214.167s-.005.208-.09.286c-.072.066-.071.067-.03.129.057.085.082.097.159.059.125-.062.242-.136.344-.235.18-.176.161-.51.029-.665-.172-.202-.394-.31-.643-.369-.291-.069-.588-.078-.886-.073-.089.001-.129.055-.166.127.032.038.074.021.109.024a.21.21 0 0 1 .201.31c-.048.143-.14.259-.243.365-.032.033-.07.045-.116.026l-.368-.141c-.117-.048-.179-.144-.202-.266a.29.29 0 0 1 .263-.343.59.59 0 0 1 .15.009c.069.013.144-.057.139-.125-.003-.03-.028-.034-.049-.042l-.194-.078c-.093-.04-.175-.099-.257-.157-.096-.068-.148-.166-.198-.268-.047-.097-.123-.125-.219-.089-.033.013-.041.033-.018.062a.25.25 0 0 0 .023.026c.102.097.072.206.023.312s-.147.133-.253.125a1.19 1.19 0 0 1-.27-.062c-.114-.037-.23-.064-.35-.074-.084-.006-.091-.018-.081-.103l.025-.185c.006-.081-.013-.104-.091-.123-.053-.013-.107-.016-.16.002-.106.036-.213.07-.325.085-.044.006-.068.032-.084.071-.019.044-.016.075.038.086a.41.41 0 0 1 .056.016c.124.043.168.151.109.269a.36.36 0 0 1-.155.154l-.351.18c-.05.026-.091.014-.124-.025a.39.39 0 0 1-.075-.372c.033-.13.115-.196.242-.218.008-.001.016-.002.024-.003l.025-.002c.033-.004.065-.012.083-.051.034-.074.08-.145.045-.232l-.037-.098c-.066-.139-.153-.161-.276-.072-.032.023-.039.046-.006.074.012.01.024.02.034.031.051.06.05.108-.004.164-.041.042-.093.069-.146.092a2.27 2.27 0 0 1-.419.133c-.078.018-.094.01-.13-.059-.014-.027-.025-.057-.035-.086a.32.32 0 0 1 .37-.451.49.49 0 0 1 .154.049c.071.035.183-.011.207-.083.012-.035-.014-.05-.038-.062-.099-.048-.204-.07-.315-.058-.042.004-.085.011-.127.009s-.053-.032-.024-.063c.046-.049.106-.077.163-.109.039-.023.091-.041.06-.104-.026-.054-.068-.068-.135-.04-.073.03-.146.049-.225.043-.187-.014-.293-.16-.245-.342.031-.117.106-.206.182-.295.025-.029.056-.029.081-.003.07.074.16.088.254.092.012.001.023.003.034.005.207.045.254.166.121.334-.059.074-.045.088.016.138.053.043.104.073.172.087.142.029.267.101.383.188l.243.198c.06.052.126.075.203.065.113-.015.223-.008.328.044.041.021.082.008.124-.002.109-.026.217-.053.331-.038.093.012.168.049.226.125.049.064.064.062.159.034.061-.018.088-.053.088-.118.001-.079-.011-.155-.024-.232l-.017-.092h0l-.027-.149c-.003-.02-.003-.042.015-.053.023-.015.044 0 .063.014.029.022.046.052.063.083.045.082.081.169.102.26.067.29.269.423.537.48.254.054.507.021.761-.007.026-.003.073.004.07-.041s-.034-.071-.078-.073c-.034-.001-.069.005-.103.01-.284.042-.411-.106-.331-.385.034-.117.093-.222.147-.33.021-.043.052-.055.094-.03l.392.225c.041.029.079.063.113.1.093.101.09.188-.004.286-.035.036-.073.068-.129.083.024.057.068.083.109.109.134.087.279.149.427.207.256.099.527.156.77.287.054.029.1.022.141-.032a.62.62 0 0 1 .223-.183c.053-.026.071-.067.06-.124s-.051-.06-.096-.064c-.273-.023-.28-.237-.182-.392.048-.075.108-.142.163-.212.025-.032.055-.04.092-.02.075.041.15.079.218.132.119.092.141.267-.005.364-.054.036-.1.076-.084.151.009.041.009.09.061.102s.1.001.136-.043c.031-.037.041-.082.051-.129.017-.084.013-.171.038-.254.046-.156.164-.238.323-.223.063.006.075.022.046.081-.053.105-.043.212-.02.319.01.049.029.097.043.145.05.17.051.169.201.26.037.022.063.02.092-.01.021-.022.044-.044.068-.063.113-.085.22-.065.294.056.058.096.077.203.078.314.003.202-.011.221-.207.236-.096.007-.193.005-.289.004-.031 0-.061-.008-.091-.015-.083-.021-.156-.058-.17-.153s.005-.179.089-.237c.016-.011.032-.022.046-.036s.011-.036-.008-.048a.13.13 0 0 0-.132-.011c-.031.015-.06.035-.088.056a.47.47 0 0 1-.234.093l-.034.005c-.218.045-.287.143-.252.364l.065.32c.04.149.031.293-.017.436l-.034.112c-.01.035 0 .066.036.074.09.022.181.045.274.028.027-.005.055-.014.066-.042s-.003-.036-.017-.047l-.014-.011c-.097-.097-.112-.172-.061-.29.029-.069.074-.127.116-.188l.143-.212c.03-.043.065-.047.078-.006.031.1.113.129.194.168.178.085.241.244.17.414-.054.129-.191.223-.324.194s-.191.061-.272.12c-.032.023-.003.047.016.067.106.11.307.139.439.056.069-.043.131-.096.195-.147.219-.176.333-.187.541-.002a.77.77 0 0 0 .508.187h.013 0 .027c.032 0 .064.005.093.035-.047.05-.107.057-.158.081-.039.019-.049.039-.029.082.038.08.083.12.185.113.246-.018.284.122.285.288.001.084-.025.169-.04.253-.006.034-.029.06-.063.057l-.115-.005-.077-.001c-.09-.002-.179-.008-.266-.041-.115-.045-.168-.135-.152-.257.012-.093.06-.155.149-.19s.092-.064.028-.131c-.047-.05-.106-.079-.174-.083a1.31 1.31 0 0 1-.383-.083c-.132-.05-.246-.023-.35.076-.081.077-.162.157-.263.209-.038.02-.036.046-.019.077l.027.051c.039.068.039.068.105.032.183-.101.332-.033.381.173.025.105.02.209-.002.313-.018.085-.035.101-.125.107-.155.011-.308-.01-.461-.032l-.17-.032a.16.16 0 0 1-.133-.168c-.002-.042.001-.086.009-.128.02-.109.085-.169.194-.187.037-.006.077.007.117-.02-.041-.084-.086-.147-.19-.165-.109-.019-.215-.062-.322-.096l-.21-.066c-.091-.025-.168.041-.165.135 0 .022.01.037.031.044l.088.029c.102.044.131.114.088.216a.61.61 0 0 1-.125.181 1.06 1.06 0 0 1-.239.183c-.059.034-.118.079-.193.038-.092-.051-.185-.098-.21-.217-.037-.177.047-.34.216-.402.051-.018.104-.028.157-.041.069-.018.123-.093.117-.163-.004-.037-.028-.041-.053-.042h-.017 0c-.209 0-.416.02-.615.094a.74.74 0 0 0-.104.05c-.114.065-.18.162-.17.296.031.435.114.857.334 1.24.095.166.234.277.412.34.168.06.344.087.518.123.025.005.057.02.068-.018.009-.033-.004-.063-.033-.08-.02-.011-.044-.013-.066-.02-.047-.017-.097-.03-.141-.052-.113-.057-.141-.133-.093-.25.063-.155.165-.291.226-.447.012-.032.038-.039.065-.017.077.064.174.082.262.12.077.033.142.079.185.152a.21.21 0 0 1-.041.293c-.052.048-.116.076-.177.109-.041.023-.1.029-.09.102.012.085.067.157.14.165.049.006.1.003.15.001l1.018-.037a2.11 2.11 0 0 1 .63.071c.091.025.106.014.123-.081l.088-.53c.008-.074-.002-.138-.067-.183-.046.022-.052.07-.077.103-.06.079-.124.105-.211.082s-.133-.075-.144-.175c-.006-.047-.006-.094.006-.14l.094-.349c.012-.045.04-.067.085-.057.091.02.185.014.275.039.037.011.074.022.107.043.1.064.108.145.021.228l-.026.023c-.087.074-.087.074-.016.163.014.018.025.039.037.059s.014.037.037.042c.028-.01.037-.038.05-.061.22-.389.386-.799.433-1.248a2.38 2.38 0 0 0-.018-.699c-.038-.194-.136-.337-.337-.389-.045-.012-.088-.028-.132-.044-.213-.078-.429-.15-.587-.339-.03.051-.006.086.003.121.043.171-.01.289-.164.365-.195.096-.248.087-.358-.086l-.012-.02-.018-.03c-.136-.232-.005-.366.205-.437.045-.015.093-.004.133.022.035.022.066.037.103.001s.055-.073.034-.125c-.026-.065-.043-.131-.054-.202-.02-.14-.021-.279-.02-.42 0-.216-.046-.425-.096-.633-.009-.037-.017-.082-.069-.08-.059.002-.075.043-.079.096-.023.287-.265.374-.487.276-.089-.039-.092-.039-.069-.138l.059-.274c.025-.123.104-.177.227-.152.061.013.118.037.169.074l.046.035c.037.024.068.005.093-.02s.005-.05-.011-.072c-.116-.164-.275-.259-.469-.295l-.366-.058c-.226-.034-.414-.142-.574-.303-.105-.106-.227-.176-.375-.191-.114-.011-.219.013-.305.093.015.041.045.039.069.048l.096.042c.151.085.186.228.093.375-.051.081-.126.127-.215.147l-.319.058c-.011.002-.024.004-.035.002-.145-.032-.229-.139-.295-.26-.056-.104-.017-.206.042-.297.046-.07.122-.102.202-.092.135.018.24-.026.328-.126.023-.026.059-.037.075-.071-.011-.034-.043-.032-.067-.037-.269-.053-.539-.098-.815-.059-.074.01-.143.031-.207.069-.041.024-.073.057-.093.101-.015.034-.012.062.03.071.049.011.106.01.127.066.025.063-.002.123-.03.179-.048.099-.126.176-.191.264-.023.031-.051.028-.08.005a1.03 1.03 0 0 1-.209-.201c-.079-.11-.059-.205.055-.275.033-.021.069-.035.107-.042s.067-.033.085-.071c.051-.108.039-.128-.082-.143-.181-.022-.359-.053-.525-.135-.089-.044-.198-.017-.264.055-.037.04-.035.061.011.092.016.011.034.018.05.029.097.07.116.175.049.276-.03.046-.071.083-.12.108a1.02 1.02 0 0 1-.492.113c-.079-.001-.09-.015-.108-.093-.063-.279.12-.508.398-.491.046.003.074-.011.099-.043.048-.06.089-.128.162-.153-.007-.053-.041-.069-.065-.093l-.173-.173c-.307-.328-.773-.282-1.013.102a.94.94 0 0 0-.088.19c-.016.046.001.067.048.067l.046.002c.17.015.239.111.201.279a.36.36 0 0 1-.133.2c-.062.051-.13.093-.2.133l-.084.047h0c-.02.011-.043.018-.066.02-.16.013-.369-.112-.437-.26-.099-.213.074-.472.31-.462.012.001.023.003.035.004.148.017.181-.011.196-.162.005-.048-.014-.077-.059-.083a.81.81 0 0 0-.138-.009.7.7 0 0 1-.317-.054c-.198-.091-.35-.004-.495.121-.028.024-.022.04.003.065.119.122.118.227-.007.338-.132.118-.301.152-.467.19-.024.006-.047-.005-.063-.023-.094-.109-.139-.235-.11-.378a.32.32 0 0 1 .252-.261c.074-.019.147-.024.193.058.024.043.055.033.087.008.1-.079.189-.172.299-.24.036-.022.028-.051.003-.078a.38.38 0 0 0-.168-.1c-.063-.019-.123-.042-.169-.095-.032-.038-.059-.039-.092-.003l-.009.011c-.128.164-.283.165-.414.004-.046-.057-.088-.119-.125-.183-.041-.073-.035-.119.023-.18a1.4 1.4 0 0 1 .261-.213c.103-.065.191-.037.252.072.043.077.053.162.066.247.018.122.082.185.204.193.109.007.213.035.315.071l.22.071c.139.037.276.028.404-.044l.242-.138c.192-.106.392-.162.612-.107.021.005.045.016.072-.006-.078-.275-.216-.504-.492-.621l-.41-.161c-.06-.024-.12-.022-.179.007-.095.046-.099.061-.029.145s.064.184-.017.275c-.068.077-.156.127-.253.158-.049.015-.092.006-.119-.044l-.117-.215c-.033-.071-.063-.146.003-.217s.144-.141.25-.112c.063.017.103-.002.147-.036.085-.066.086-.065.023-.16-.009-.013-.018-.026-.023-.04-.009-.025-.025-.052.001-.076.02-.018.044-.008.065-.001.208.067.422.09.638.109.041.004.079.008.086-.048.006-.049.024-.093-.042-.126-.204-.103-.236-.376-.061-.531.084-.074.18-.135.27-.202.041-.03.071-.019.095.022.05.084.118.153.18.229a.48.48 0 0 1 .098.196c.027.115-.014.198-.12.247-.064.03-.135.034-.203.047-.044.008-.086.016-.091.071s-.009.111.051.143l.02.011c.184.091.363.19.485.399.014-.237.154-.364.299-.483l.04-.032.059-.049c.039-.033.076-.032.113.006l.251.259c.022.027.041.057.056.088.098.199-.025.417-.245.435-.058.005-.115-.003-.172-.015-.069-.014-.094 0-.112.067a.49.49 0 0 0 .026.364c.073.142.187.246.314.337.022.016.048.024.075.029.19.036.382.056.575.05.019-.001.039 0 .057-.006.043-.013.048-.048.037-.084s-.042-.025-.066-.014a.38.38 0 0 1-.19.045c-.132-.008-.2-.11-.157-.236a.56.56 0 0 1 .027-.065.6.6 0 0 0 .062-.339c-.01-.085 0-.09.08-.075l.295.06c.034.007.068.017.1.029.078.03.154.068.162.164s-.031.183-.112.243c-.006.005-.013.008-.02.012-.092.058-.109.122-.063.219.021.043.058.044.097.047l.47.06a2.65 2.65 0 0 1 .411.121c.031.012.061.035.1.024.016-.025.012-.05.007-.075l-.006-.025a1.17 1.17 0 0 1 .128-.724c.037-.07.097-.121.145-.181.033-.042.071-.081.081-.133-.027-.034-.055-.016-.079-.011-.096.023-.178-.001-.24-.077s-.063-.173-.031-.266c.019-.056.056-.102.101-.14.094-.081.199-.147.282-.242.03-.034.067-.032.107-.02a.57.57 0 0 1 .28.179c.125.147.075.359-.101.438-.043.019-.088.028-.134.037-.036.007-.064.026-.073.066-.011.049.012.082.059.069l.097-.026c.21-.057.418-.12.601-.246a.49.49 0 0 0 .087-.077c.078-.088.079-.142.005-.235-.058-.073-.119-.144-.165-.226-.027-.048-.051-.097-.047-.154s.047-.09.093-.056c.12.089.261.134.392.2.064.032.109.085.143.148.069.129.176.133.264.012a.51.51 0 0 1 .113-.117c.136-.097.305-.067.394.075.076.121.1.26.107.402.003.053-.023.089-.072.107-.123.047-.242.102-.372.13-.109.023-.221.037-.298-.066s-.094-.212-.036-.33c.003-.005-.001-.014-.001-.026-.05.012-.081.046-.101.089-.085.183-.231.309-.387.426l-.056.041c-.022.018-.025.04-.004.059l.123.106c.032.026.057.005.083-.014.047-.035.095-.067.152-.083.095-.028.171-.003.217.083a.56.56 0 0 1 .041.441c-.014.047-.045.073-.092.074l-.118.009-.118.013c-.079.008-.157.014-.237.007-.102-.009-.2-.031-.259-.129-.068-.111-.04-.205.079-.254.056-.023.117-.036.177-.053-.055-.102-.2-.156-.306-.106a1.15 1.15 0 0 0-.371.256.33.33 0 0 0 .059.523c.188.134.397.224.61.306l.564.214c.029.011.056.028.089.023.021-.003.036-.015.04-.036s-.006-.032-.023-.034c-.037-.004-.068-.016-.078-.057s-.005-.077.01-.114c.023-.059.063-.108.105-.153l.203-.208c.042-.046.086-.045.135-.018a.62.62 0 0 1 .227.195c.097.141.042.309-.118.37-.08.03-.159.019-.239 0-.086-.021-.12.015-.102.104.012.06.044.11.091.145.218.159.315.385.365.641.018.092.045.181.068.272a.67.67 0 0 0 .156.296c.11.12.238.217.376.312.007-.023.014-.034.013-.043-.029-.222.048-.422.13-.62.022-.053.053-.104.024-.175a.34.34 0 0 1-.236.028c-.117-.027-.173-.092-.173-.213 0-.176.084-.321.177-.461.022-.033.053-.04.092-.024l.312.125a.24.24 0 0 1 .034.417c-.067.047-.087.099-.072.178.008.041.03.05.066.041.07-.017.126-.056.173-.111.062-.073.094-.16.125-.248l.094-.276c.058-.15.17-.237.329-.259.029-.004.067-.013.085.019s-.011.051-.025.073a.97.97 0 0 0-.126.573.43.43 0 0 0 .14.311c.061.052.078.05.13-.012.005-.006.009-.013.014-.019.053-.064.116-.108.201-.083.091.027.121.108.125.192s-.008.171-.015.256c-.003.042-.025.071-.068.084-.119.035-.233.086-.355.106-.159.026-.274-.041-.309-.175-.023-.087.002-.162.073-.216.012-.009.026-.017.038-.026.024-.018.061-.031.046-.07s-.037-.069-.073-.088c-.021-.012-.036.007-.05.02l-.265.244c-.104.099-.154.221-.142.368a1.66 1.66 0 0 0 .16.594c.045.091.128.155.192.232a2.66 2.66 0 0 1 .492.813c.032.087.047.18.073.27.018.064.035.069.089.033a1.05 1.05 0 0 0 .225-.217c.084-.102.158-.211.222-.327.043-.079.049-.163.045-.249-.002-.058-.015-.063-.074-.04-.065.032-.121.05-.173.004s-.061-.108-.04-.172c.046-.146.039-.291.01-.439-.01-.055-.032-.124.022-.164s.112 0 .164.02a1.56 1.56 0 0 1 .276.148c.153.1.15.369-.012.44-.104.046-.099.057-.077.17.007.037.003.079.034.111.046 0 .063-.039.085-.069.262-.367.417-.773.422-1.228a1.77 1.77 0 0 0-.282-.974c-.261-.417-.626-.716-1.051-.945l-.706-.378c-.074-.041-.142-.093-.213-.14-.042-.028-.085-.054-.136-.062s-.092.008-.117.055c-.017.032-.022.062.026.068.076.01.144.031.18.107.04.085.018.168-.015.249-.08.197-.168.239-.37.179-.112-.033-.203-.095-.262-.198-.051-.088-.035-.163.046-.225a.39.39 0 0 1 .146-.069c.072-.018.124-.059.161-.123s.107-.103.111-.173-.064-.111-.1-.166a1.1 1.1 0 0 1-.161-.589l-.005-.491c.001-.166-.068-.292-.2-.387a1.87 1.87 0 0 0-.268-.162c-.118-.058-.23-.127-.329-.215a.59.59 0 0 0-.106-.07c-.034-.019-.068-.013-.093.019s-.03.054.014.073c.032.013.065.028.092.048.083.063.1.154.034.235-.091.113-.208.198-.341.255-.079.034-.124.016-.182-.053l-.028-.037c-.067-.076-.099-.159-.05-.256.051-.103.108-.202.244-.201.082.001.08-.068.112-.126-.079-.025-.151-.017-.221-.01-.275.026-.54.091-.788.216-.072.037-.148.067-.224.096-.266.104-.514.079-.739-.107l-.046-.036c-.04-.037-.074-.028-.111.007l-.137.126a1.87 1.87 0 0 1-.363.27.3.3 0 0 0-.161.189c-.016.062-.006.078.055.083.035.003.07-.001.104.004.101.016.154.089.139.192a.58.58 0 0 1-.363.408c-.056.015-.107-.005-.159-.016-.096-.021-.184-.058-.258-.124-.13-.115-.133-.268-.005-.384.082-.074.172-.129.291-.123.066.003.132-.107.11-.17-.008-.022-.027-.026-.046-.029l-.171-.031c-.257-.048-.497-.142-.722-.275l-.331-.191c.09-.063.179-.07.27-.063.038.003.077.009.115.015.053.009.069-.017.069-.065 0-.098-.019-.183-.11-.241s-.176-.126-.265-.189c-.058-.041-.124-.064-.194-.074-.101-.015-.163.028-.185.127-.012.054-.024.107-.051.155-.052.095-.135.125-.235.088-.088-.033-.152-.091-.189-.178-.03-.072-.057-.146-.111-.204-.031-.034-.025-.065.005-.091.128-.111.266-.203.445-.196.096.004.143.04.172.127.009.027 0 .069.048.064s.095-.012.107-.071l.027-.161c.014-.08.027-.162.071-.233.01-.016.024-.032.046-.029s.029.023.032.042l.022.138c.015.105.064.18.17.212.074.023.143.058.208.101a.56.56 0 0 1 .265.479v.199c.005.095.056.15.151.161.07.009.138.001.205-.025.151-.058.277-.153.394-.262l.31-.299c.052-.05.089-.107.093-.182a3.1 3.1 0 0 0-.039-.628.42.42 0 0 0-.017-.068c-.027-.083-.059-.165-.161-.179-.116-.016-.213.026-.293.107-.031.031-.019.056.042.058.14.004.191.157.174.255-.011.061-.046.106-.091.145-.08.07-.176.111-.274.149l-.219.076c-.034.012-.063.01-.075-.028-.028-.088-.091-.153-.143-.225-.059-.082-.072-.169-.029-.263a.22.22 0 0 1 .236-.151c.054.002.107.013.161.019.043.005.085.003.116-.035.093-.114.212-.191.356-.227-.048-.099-.088-.125-.18-.112-.135.019-.269.02-.403-.009-.098-.021-.182-.066-.238-.153-.037-.058-.024-.092.042-.09.267.01.519-.068.773-.131.206-.051.386.037.473.232l.118.273c.048-.005.058-.038.078-.061.031-.036.027-.07-.006-.103-.016-.017-.03-.036-.042-.055-.057-.091-.051-.176.016-.259.042-.052.097-.088.15-.128.096-.072.195-.139.269-.238.035-.047.062-.045.087.006.058.116.144.212.213.32.065.101.109.215.047.33a.37.37 0 0 1-.32.2c-.067.004-.132-.004-.189-.043-.049-.033-.08-.02-.117.024-.102.121-.158.251-.138.417.025.206.057.408.157.594.059.11.146.166.271.165.104 0 .207-.006.305-.034.018-.036-.008-.055-.019-.078-.027-.056-.067-.069-.123-.043-.084.038-.159.007-.228-.041-.097-.067-.124-.152-.086-.264s.101-.21.167-.306c.017-.024.038-.038.068-.034l.058.008c.126.019.249.043.352.131.095.081.103.167.02.261-.039.044-.088.076-.139.104-.046.025-.047.056-.023.096.041.071.105.099.188.072a3.93 3.93 0 0 1 .503-.134c.065-.012.073-.03.051-.1l-.113-.356c-.079-.292-.106-.59-.095-.891a.49.49 0 0 0-.087-.284c-.026-.043-.056-.06-.105-.039a.67.67 0 0 1-.121.038c-.138.029-.235-.044-.251-.185-.006-.055.004-.109.016-.162l.042-.158c.024-.082.03-.161-.032-.231-.018-.02-.034-.045-.018-.074s.045-.028.072-.024a1.11 1.11 0 0 1 .418.131c.11.064.155.17.133.298a.54.54 0 0 1-.08.205c-.013.019-.029.039-.033.06-.008.038.012.073.046.086.028.011.036-.008.041-.028l.004-.015.157-.472c.032-.095.035-.19.018-.288-.014-.08-.021-.162-.029-.243-.002-.027.002-.057.033-.069s.052.004.073.023c.137.128.211.286.22.474a.82.82 0 0 1-.021.263c.048.015.067-.017.093-.029.061-.028.09-.058.068-.142-.032-.124.01-.239.116-.321s.225-.118.342-.17c.037-.016.065.004.065.041.001.111.062.199.104.294.097.223-.005.414-.246.46-.071.014-.127-.016-.178-.063-.108-.098-.209-.092-.303.021-.022.026-.042.057-.056.088-.056.126-.076.261-.077.398-.001.057.022.088.082.085l.185-.003c.046.001.069-.028.092-.061.038-.055.08-.105.139-.138.082-.046.148-.031.199.049.043.067.062.143.067.221.004.06.022.106.087.12.055.013.057.048.027.086-.124.152-.274.264-.475.284-.116.012-.201-.042-.259-.141a.22.22 0 0 1 .022-.261c.013-.018.035-.033.03-.06-.131-.02-.201.019-.235.14a.73.73 0 0 0 .162.697 1.77 1.77 0 0 0 .422.362c.21.133.432.241.659.34l.289.133c.011-.147.053-.275.083-.405.014-.06-.032-.109-.066-.156-.013-.018-.034-.018-.052-.007s-.042.034-.066.048c-.063.036-.108.025-.149-.036-.029-.043-.044-.091-.053-.141-.027-.142-.04-.285-.036-.43.002-.077.011-.086.093-.076l.277.023c.082.004.153.035.178.123.028.097.033.193-.043.274-.013.014-.03.024-.045.037-.061.053-.053.126.017.168.025.015.044.006.06-.014.195-.24.442-.423.662-.636a2.07 2.07 0 0 0 .24-.269c.062-.085.113-.176.148-.277.055-.161.022-.21-.152-.218-.057-.003-.115-.005-.177.028.04.059.093.102.1.177.015.152-.041.25-.186.291-.129.037-.26.025-.391.013-.015-.002-.03-.007-.045-.009-.138-.022-.138-.022-.069-.146.02-.035.027-.072.028-.112l.001-.175c.001-.107.026-.203.131-.253a.31.31 0 0 1 .329.032c.019.013.035.031.051.047s.046.032.074.025c.094-.027.19-.024.29-.022.002-.053-.028-.086-.051-.119a1.13 1.13 0 0 1-.156-.337c-.032-.109-.079-.212-.139-.307-.043-.067-.054-.067-.114-.014-.131.116-.268.078-.319-.091-.017-.056-.025-.114-.025-.173v-.327c.001-.084.011-.097.09-.102.121-.007.24.011.353.053.19.07.252.313.127.475-.064.082-.064.082.026.171l.093-.188c.047-.095.105-.181.183-.254.017-.016.034-.032.053-.045.039-.024.085-.066.125-.032.047.04-.006.084-.022.124s-.041.084-.061.126c-.144.302-.074.576.115.83l.187.238c.118.155.137.325.07.508-.013.035-.047.075-.019.109.034.041.08.071.125.102.023.016.043-.007.061-.021.173-.133.263-.05.3.127.018.084.029.168.031.255.001.059-.017.098-.079.108-.131.022-.261.029-.39-.01-.041-.012-.078-.034-.109-.064-.063-.06-.071-.128-.021-.199.025-.034.057-.063.087-.094s.019-.055-.016-.072c-.051-.024-.099-.016-.141.019l-.429.357c-.061.052-.058.06-.001.12.008.008.018.015.025.025.069.097.138.129.258.059.126-.073.253-.008.313.127.05.111.05.227.036.344-.005.044-.028.084-.075.095-.172.042-.339.111-.52.107-.046-.001-.093-.003-.137-.018-.13-.043-.183-.141-.146-.273.028-.102.092-.178.174-.241.024-.018.058-.024.073-.055-.081-.123-.169-.133-.273-.04-.197.176-.336.386-.377.652-.018.115-.022.232-.031.349-.003.045.014.083.039.12a1.06 1.06 0 0 1 .17.406c.005.027.006.074.047.066s.025-.05.024-.08c-.001-.023-.008-.046-.009-.07-.001-.082.021-.152.095-.201.058-.038.115-.079.18-.106.056-.024.104-.018.142.036.042.061.091.116.123.184.054.117.038.226-.045.313a.3.3 0 0 1-.319.075c-.132-.055-.157-.045-.204.078-.056.146-.054.298-.037.45.008.074.059.135.106.192.087.106.19.194.308.263.188.11.391.184.598.248.062.019.074.012.07-.045-.017-.245.051-.47.152-.688.055-.119.03-.245.031-.368 0-.037-.024-.047-.056-.03l-.08.047c-.041.022-.084.04-.132.039-.115-.002-.191-.112-.147-.219a1.46 1.46 0 0 1 .079-.156c.054-.095.099-.193.128-.3.022-.081.043-.095.125-.084.112.015.218.053.315.112.117.072.135.245.039.344-.027.028-.057.054-.091.071-.076.039-.094.098-.072.175.008.029.008.062.028.086.019.008.031-.004.041-.015.183-.206.407-.357.643-.493.074-.042.128-.097.155-.183-.037-.025-.077-.013-.114-.014-.047-.001-.093-.006-.134-.03-.073-.044-.092-.115-.049-.189.034-.058.083-.103.133-.145.071-.06.144-.118.196-.198.025-.038.059-.045.1-.04a.35.35 0 0 1 .273.176c.05.086.043.172-.015.252-.045.061-.105.103-.177.126-.062.02-.099.057-.098.124.013.019.028.019.043.015l.015-.004c.095-.016.179-.043.265-.067.304-.084.433-.306.465-.601.028-.257-.023-.503-.106-.746l-.212-.667-.02-.091c-.012-.058-.048-.073-.102-.066-.099.014-.179.084-.222.197.024.037.063.02.095.022.117.007.168.046.199.158.036.129.014.248-.069.352a1.63 1.63 0 0 1-.241.235c-.042.035-.087.045-.14.03-.117-.035-.219-.095-.302-.188a.38.38 0 0 1-.094-.28c.006-.148.087-.258.232-.279.134-.019.235-.062.305-.188.05-.089.147-.133.244-.169s.1-.056.071-.149c-.035-.115-.116-.192-.212-.254a1.18 1.18 0 0 0-.187-.093c-.083-.035-.206.015-.247.093-.015.027.001.041.018.059.163.17.108.4-.115.477-.125.043-.259.036-.388.063-.037.008-.056-.014-.068-.047-.015-.04-.029-.081-.05-.118-.075-.129-.034-.242.047-.345s.19-.13.311-.079a.11.11 0 0 0 .136-.029l.065-.066c.007-.008.015-.016.024-.024l.025-.023c.021-.019.039-.04.044-.069.009-.052-.042-.08-.063-.12s-.034-.08-.035-.122c-.002-.102-.083-.144-.146-.198-.034-.029-.065-.003-.092.02-.079.065-.168.093-.269.083-.126-.011-.215-.097-.227-.224-.007-.079.003-.157.032-.23l.145-.331c.022-.05.055-.07.111-.051l.276.088c.196.078.257.293.138.471-.018.027-.057.05-.032.091.02.032.045.07.089.065.038-.004.037-.046.045-.074.069-.235.145-.468.181-.712.003-.023.008-.047.019-.067.022-.042.057-.052.097-.027zm-2.011 18.399a.6.6 0 0 0-.138.341 1.97 1.97 0 0 0 .005.408l.072.779c.003.13-.008.256-.058.377l-.115.28a.85.85 0 0 0-.063.224c-.024.205.062.304.266.301a.69.69 0 0 0 .577-.293c.074-.101.125-.214.161-.335a1.99 1.99 0 0 0 .078-.625c0-.193-.004-.353-.029-.511-.04-.252-.105-.495-.244-.712-.075-.116-.167-.215-.29-.28-.102-.053-.149-.043-.222.045z" fill="#fff"/></svg>